<svg width="440" height="179" xmlns="http://www.w3.org/2000/svg"><style>.st0{fill:#444a55}</style><g class="layer"><g id="typo-mod_1_"><path class="st0" d="M372.3 125.2c-3.7 0-7.2-.9-10.3-2.7-3-1.8-4.9-3.4-6.9-6v7.9h-5.2V61.9h5.8V88c2.3-3 3.9-4.4 6.8-6.2 3.1-1.9 6.9-2.9 10.7-2.9 3.2 0 6.2.7 8.7 2 2.6 1.3 4.8 3.1 6.6 5.3 1.8 2.2 3.2 4.7 4.2 7.4 1 2.8 1.5 5.6 1.5 8.5 0 3.1-.6 6.1-1.7 8.9-1.1 2.8-2.7 5.2-4.6 7.3-1.9 2.1-4.3 3.7-7 5-2.7 1.3-5.6 1.9-8.6 1.9zm-1.2-5.2c2.6 0 5-.5 7.1-1.5 2.1-1 4-2.3 5.5-4s2.7-3.6 3.6-5.7c.9-2.1 1.3-4.4 1.3-6.6 0-2.3-.4-4.6-1.2-6.8-.8-2.2-2-4.1-3.4-5.8-1.5-1.7-3.3-3-5.3-4-2.1-1-4.4-1.5-6.8-1.5-1.9 0-3.6.3-5.2.9-1.6.6-3.1 1.4-4.5 2.4s-2.6 2.2-3.7 3.6c-1.1 1.3-2 2.8-2.7 4.2v13.9c.2 1.5.9 3 2 4.3 1.1 1.3 2.3 2.5 3.8 3.5s3.1 1.7 4.8 2.3c1.5.6 3.2.8 4.7.8z" id="svg_1"/><path class="st0" d="M222.5 124.3h-5.8V99.4c0-6.1-.8-9.3-2.5-11.9-1.6-2.4-3.9-3.2-7.1-3.2-1.7 0-3.4.3-5.1.9-1.7.6-3.3 1.5-4.8 2.7-1.5 1.1-2.8 2.5-3.9 4.1-1.1 1.6-2 3.3-2.5 5.1v27.3H185V79.8h5.3v9.4c1.8-3.3 4-5.3 7.4-7.3 3.4-2 7.1-2.9 11.1-2.9 2.5 0 4.5.5 6.3 1.4 1.7.9 3.2 2.1 4.4 3.9 1.1 1.6 1.9 3.6 2.4 6s.6 5.1.6 8v26z" id="svg_2"/><path class="st0" d="M244.9 125.2c-2.1 0-4.1-.4-5.9-1.1-1.8-.7-3.4-1.7-4.7-3-1.3-1.3-2.4-2.7-3.1-4.4-.7-1.7-1.1-3.5-1.1-5.4 0-1.9.5-4.2 1.4-5.9.9-1.7 2.2-3.1 3.9-4.3 1.7-1.2 3.6-2.1 5.9-2.8 2.3-.7 4.8-1 7.5-1 2.3 0 4.6.2 6.9.6s4.4 1 6.2 1.7v-3c0-3.9-1.1-7.1-3.3-9.4-2.2-2.3-5.3-3.5-9.3-3.5-2.3 0-4.6.5-7 1.4-2.4.9-4.2 1.9-6.7 3.6l-2.7-4.1c5.8-3.9 11.4-5.8 16.8-5.8 5.6 0 10 1.6 13.2 4.7 3.2 3.1 4.8 7.5 4.8 13v19.9c0 1.8 1.2 2.6 3.4 2.6v5.1c-1 .2-2.2.2-2.7.2-1.7 0-3.5-.7-4.5-1.8-1-1-1.6-2.5-1.6-4.4v-.9c-2 2.4-4.4 4.3-7.3 5.6-3.2 1.7-6.5 2.4-10.1 2.4zm1.4-4.9c3 0 5.8-.6 8.3-1.7 2.5-1.1 4.4-2.7 5.8-4.5.6-.8 1-1.5 1.2-2 .3-.6.3-1 .3-1.6v-6.6c-1.9-.7-4-1.3-6-1.7-2.1-.4-4.2-.6-6.4-.6-4.1 0-7.5.9-10 2.6-2.6 1.7-3.9 4-3.9 6.8 0 1.4.3 2.4.8 3.6.5 1.2 1.3 2.1 2.2 2.9.9.9 2.1 1.6 3.4 2.1 1.4.4 2.8.7 4.3.7z" id="svg_3"/><path class="st0" d="M413.6 125.2c-2.1 0-4.1-.4-5.9-1.1-1.8-.7-3.4-1.7-4.7-3-1.3-1.3-2.4-2.7-3.1-4.4-.7-1.7-1.1-3.5-1.1-5.4 0-1.9.5-4.2 1.4-5.9.9-1.7 2.2-3.1 3.9-4.3 1.7-1.2 3.6-2.1 5.9-2.8 2.3-.7 4.8-1 7.5-1 2.3 0 4.6.2 6.9.6 2.3.4 4.4 1 6.2 1.7v-3c0-3.9-1.1-7.1-3.3-9.4-2.2-2.3-5.3-3.5-9.3-3.5-2.3 0-4.6.5-7 1.4-2.4.9-4.2 1.9-6.7 3.6l-2.7-4.1c5.8-3.9 11.4-5.8 16.8-5.8 5.6 0 10 1.6 13.2 4.7 3.2 3.1 4.8 7.5 4.8 13v19.9c0 1.8 1.2 2.6 3.4 2.6v5.1c-1 .2-2.2.2-2.7.2-1.7 0-3.5-.7-4.5-1.8-1-1-1.6-2.5-1.6-4.4v-.9c-2 2.4-4.4 4.3-7.3 5.6-3.1 1.7-6.5 2.4-10.1 2.4zm1.4-4.9c3 0 5.8-.6 8.3-1.7 2.5-1.1 4.4-2.7 5.8-4.5.6-.8 1-1.5 1.2-2 .3-.6.3-1 .3-1.6v-6.6c-1.9-.7-4-1.3-6-1.7-2.1-.4-4.2-.6-6.4-.6-4.1 0-7.5.9-10 2.6-2.6 1.7-3.9 4-3.9 6.8 0 1.4.3 2.4.8 3.6.5 1.2 1.3 2.1 2.2 2.9.9.9 2.1 1.6 3.4 2.1 1.4.4 2.8.7 4.3.7z" id="svg_4"/><path class="st0" d="M274.3 139.8c-1.9 0-3.7-.3-5.3-.8s-3.1-1.4-4.5-2.6l2.8-3.9c.9.8 1.9 1.3 3 1.6 1.1.3 2.2.4 3.3.4 1 0 2-.2 3-.6.9-.4 1.8-1 2.5-1.7s1.3-1.6 1.8-2.5c.5-1 .7-2 .7-3.2V79.6h5.8v46.6c0 2-.4 3.8-1.1 5.5-.7 1.7-1.7 3.1-3 4.3s-2.6 2.1-4.2 2.8c-1.6.7-3.2 1-4.8 1z" id="svg_5"/><path class="st0" d="M318.7 125.2c-3.3 0-6.4-.6-9.1-1.8s-5.1-2.9-7.2-5c-2-2.1-3.6-4.6-4.7-7.4-1.1-2.8-1.7-5.7-1.7-8.8 0-3.1.6-6.1 1.7-8.9 1.1-2.8 2.7-5.3 4.7-7.4 2-2.1 4.4-3.8 7.2-5.1 2.8-1.3 5.8-1.9 9.1-1.9s6.3.6 9.1 1.9c2.8 1.3 5.2 2.9 7.2 5.1 2 2.1 3.6 4.6 4.7 7.4 1.1 2.8 1.7 5.8 1.7 8.9 0 3.1-.6 6-1.7 8.8-1.1 2.8-2.7 5.3-4.7 7.4-2 2.1-4.4 3.8-7.2 5-2.7 1.2-5.7 1.8-9.1 1.8zm-17-23c0 2.5.5 4.8 1.4 7 .9 2.1 2.1 4 3.7 5.7 1.5 1.6 3.3 2.9 5.4 3.8 2.1.9 4.3 1.4 6.6 1.4s4.6-.5 6.6-1.4c2.1-.9 3.9-2.2 5.5-3.9 1.6-1.6 2.8-3.5 3.7-5.7.9-2.2 1.4-4.5 1.4-7s-.5-4.8-1.4-7c-.9-2.2-2.1-4.1-3.7-5.7s-3.4-2.9-5.5-3.9c-2.1-.9-4.3-1.4-6.6-1.4-2.4 0-4.5.5-6.6 1.4-2 .9-3.9 2.2-5.4 3.9-1.6 1.7-2.8 3.6-3.7 5.8-1 2.2-1.4 4.5-1.4 7z" id="svg_6"/><circle class="st0" cx="284.6" cy="66.1" id="svg_7" r="4.5"/></g><g id="signet_1_"><g id="svg_8"><path class="st0" d="M105.6 34.078c-12.2 15.9-21.3 34.8-25.5 54.8-1.4 6.6-2.3 13.7-2.7 20.9 3.7 0 7.4-.2 11.1-.6.2-.7.3-1.4.5-2.1 6.1-24.9 17.5-41.9 34.8-52 .4-.2.9-.1 1.2.3.3.4.2.9-.2 1.2-12.9 9.7-21.1 25.3-25.1 47.7-.2 1.1-.4 2.3-.5 3.4 8.9-1.6 17.6-4 25.6-7.2.2-.1.4-.1.6 0 .2.1.3.3.3.5l.1 1c0 .3-.1.5-.3.7-8.5 4.9-17.6 8.8-26.9 11.5-.3 5.6-.3 11.1-.2 16.1.2 13.3.3 24.8-7 30.7-.2.1-.4.2-.6.2h-.2c-.3-.1-.5-.3-.6-.5-4-9.1-5-27.7-2.8-43.7-3.3.6-6.7 1.1-10 1.5-.1 18.4 3 36.2 8.7 47 .2.3.1.7-.1 1-.2.2-.4.3-.7.3-.1 0-.2 0-.3-.1-11.2-4.2-20-22.1-20.1-47.8-3.8-.1-7.5-.4-11-.9 2.1 18.3 8.1 36.2 19.2 44.9.3.2.4.6.3.9-.1.3-.4.6-.8.6-.8.1-1.6.1-2.4.1-6 0-11.3-2.4-15.8-7.2-6.2-6.6-12.8-21.3-13.3-42.3-2.9-1-5.7-2.1-8.2-3.4-15.9-8.2-15.7-18.5-14.9-22.5 1.4-6.9 7.4-12.2 14.6-12.8.3 0 .5.1.7.4.1.2.1.5-.1.7-2.1 2.2-2.7 5.6-1.8 9.5 1.2 5.1 4.9 10 10.4 13.8 2.5-27.3 11.4-53.6 24.3-72.6-37.1 4.7-65.9 36.4-65.9 74.8 0 41.7 33.8 75.5 75.5 75.5s75.5-33.8 75.5-75.5c-.2-30.6-18.8-57.1-45.4-68.8z" id="svg_9"/><path class="st0" d="M52.8 106.778c3.3 1.1 7.5 1.9 12.1 2.4.4-5.3 1.2-10.9 2.3-16.7 4.5-22.6 15.7-44 31.3-61.2-7.3-2.4-15.1-3.6-23.2-3.6-1.6 0-3.1.1-4.7.2-10.3 18.3-16.6 43-17.8 70.7-.1 2.7-.1 5.4 0 8.2z" id="svg_10"/><path class="st0" d="M142.9 1.678c.4-.2.6-.7.4-1.2-.2-.4-.7-.6-1.1-.4-16.5 6.9-31.4 17.9-43.6 31.4 2.4.8 4.8 1.7 7.1 2.7 10.3-13.6 23-24.8 37.2-32.5z" id="svg_11"/><path class="st0" d="M81 13.178c.3-.4.3-.9 0-1.2-.3-.3-.9-.3-1.2 0-5.1 4.5-9.8 10.1-14.1 16.4 1.6-.2 3.3-.4 4.9-.5 3.2-5.5 6.6-10.5 10.4-14.7z" id="svg_12"/></g></g></g></svg>